<svg width="2423" height="263" viewBox="0 0 2423 263" fill="none" xmlns="http://www.w3.org/2000/svg">
<path d="M28.16 205H0.512002V3.39999H28.16C55.808 3.39999 79.232 13.576 98.432 33.928C117.632 54.28 127.232 77.704 127.232 104.2C127.232 130.696 117.632 154.12 98.432 174.472C79.232 194.824 55.808 205 28.16 205ZM28.16 196.36C53.312 196.36 74.624 187.144 92.096 168.712C109.76 150.088 118.592 128.584 118.592 104.2C118.592 79.816 109.76 58.408 92.096 39.976C74.624 21.352 53.312 12.04 28.16 12.04H9.152V196.36H28.16ZM283.263 186.28C272.703 200.68 255.615 207.88 231.999 207.88C208.383 207.88 191.295 200.68 180.735 186.28C170.175 171.688 164.895 149.032 164.895 118.312V90.088C164.895 59.368 170.175 36.808 180.735 22.408C191.295 7.81599 208.383 0.519989 231.999 0.519989C255.615 0.519989 272.703 7.81599 283.263 22.408C293.823 36.808 299.103 59.368 299.103 90.088V118.312C299.103 149.032 293.823 171.688 283.263 186.28ZM256.191 12.904C249.471 10.408 241.407 9.16 231.999 9.16C222.591 9.16 214.527 10.408 207.807 12.904C201.087 15.208 195.039 19.24 189.663 25C184.287 30.76 180.255 39.112 177.567 50.056C174.879 60.808 173.535 74.152 173.535 90.088V118.312C173.535 134.248 174.879 147.688 177.567 158.632C180.255 169.384 184.287 177.64 189.663 183.4C195.039 189.16 201.087 193.288 207.807 195.784C214.527 198.088 222.591 199.24 231.999 199.24C241.407 199.24 249.471 198.088 256.191 195.784C262.911 193.288 268.959 189.16 274.335 183.4C279.711 177.64 283.743 169.384 286.431 158.632C289.119 147.688 290.463 134.248 290.463 118.312V90.088C290.463 74.152 289.119 60.808 286.431 50.056C283.743 39.112 279.711 30.76 274.335 25C268.959 19.24 262.911 15.208 256.191 12.904ZM372.289 196.36H461.569L358.465 18.088V205H349.825V3.39999H359.905L467.617 189.736V3.39999H476.257V205H372.289V196.36ZM650.416 44.008C646 32.872 639.76 24.328 631.696 18.376C623.632 12.232 611.056 9.16 593.968 9.16C584.56 9.16 576.496 10.408 569.776 12.904C563.056 15.208 557.008 19.24 551.632 25C546.256 30.76 542.224 39.112 539.536 50.056C536.848 60.808 535.504 74.152 535.504 90.088V118.312C535.504 134.248 536.848 147.688 539.536 158.632C542.224 169.384 546.256 177.64 551.632 183.4C557.008 189.16 563.056 193.288 569.776 195.784C576.496 198.088 584.56 199.24 593.968 199.24C611.248 199.24 624.976 195.592 635.152 188.296C645.328 180.808 650.416 172.84 650.416 164.392V115.72H614.992V107.08H660.784V161.512C660.784 174.376 654.928 185.32 643.216 194.344C631.696 203.368 615.28 207.88 593.968 207.88C570.352 207.88 553.264 200.68 542.703 186.28C532.144 171.688 526.864 149.032 526.864 118.312V90.088C526.864 59.368 532.144 36.808 542.703 22.408C553.264 7.81599 570.352 0.519989 593.968 0.519989C612.976 0.519989 627.184 4.07199 636.592 11.176C646 18.088 653.296 27.976 658.48 40.84L650.416 44.008ZM756.467 205H710.387V3.39999H745.523C770.867 3.39999 789.971 8.10399 802.835 17.512C815.699 26.728 822.131 39.784 822.131 56.68C822.131 75.88 814.067 89.992 797.939 99.016C821.363 107.848 833.075 124.456 833.075 148.84C833.075 166.12 826.739 179.848 814.067 190.024C801.395 200.008 782.195 205 756.467 205ZM756.467 196.36C765.491 196.36 773.747 195.688 781.235 194.344C788.723 192.808 795.827 190.408 802.547 187.144C809.459 183.688 814.835 178.696 818.675 172.168C822.515 165.64 824.435 157.864 824.435 148.84C824.435 128.296 814.547 114.376 794.771 107.08L777.491 100.744L793.619 91.528C806.867 84.232 813.491 72.616 813.491 56.68C813.491 26.92 790.835 12.04 745.523 12.04H719.027V196.36H756.467ZM980.56 99.592H895.024L983.152 12.04H885.808V196.36H997.552V205H877.168V3.39999H1004.18L916.048 90.952H980.56V99.592ZM1051.75 205H1043.11V3.39999H1051.75V205ZM1202.21 3.39999V205H1193.57V3.39999H1202.21ZM1320.58 3.39999L1223.81 99.592L1329.8 205H1317.41L1211.43 99.592L1308.2 3.39999H1320.58ZM1363.85 196.36H1469.84L1408.78 28.456L1344.56 205H1335.34L1408.78 3.11199L1482.22 205H1363.85V196.36ZM1538.35 196.36H1627.63L1524.53 18.088V205H1515.89V3.39999H1525.97L1633.68 189.736V3.39999H1642.32V205H1538.35V196.36ZM1816.48 44.008C1812.06 32.872 1805.82 24.328 1797.76 18.376C1789.69 12.232 1777.12 9.16 1760.03 9.16C1750.62 9.16 1742.56 10.408 1735.84 12.904C1729.12 15.208 1723.07 19.24 1717.69 25C1712.32 30.76 1708.29 39.112 1705.6 50.056C1702.91 60.808 1701.57 74.152 1701.57 90.088V118.312C1701.57 134.248 1702.91 147.688 1705.6 158.632C1708.29 169.384 1712.32 177.64 1717.69 183.4C1723.07 189.16 1729.12 193.288 1735.84 195.784C1742.56 198.088 1750.62 199.24 1760.03 199.24C1777.31 199.24 1791.04 195.592 1801.21 188.296C1811.39 180.808 1816.48 172.84 1816.48 164.392V115.72H1781.05V107.08H1826.85V161.512C1826.85 174.376 1820.99 185.32 1809.28 194.344C1797.76 203.368 1781.34 207.88 1760.03 207.88C1736.41 207.88 1719.33 200.68 1708.77 186.28C1698.21 171.688 1692.93 149.032 1692.93 118.312V90.088C1692.93 59.368 1698.21 36.808 1708.77 22.408C1719.33 7.81599 1736.41 0.519989 1760.03 0.519989C1779.04 0.519989 1793.25 4.07199 1802.65 11.176C1812.06 18.088 1819.36 27.976 1824.54 40.84L1816.48 44.008ZM2007.47 205H1961.39V3.39999H1996.52C2021.87 3.39999 2040.97 8.10399 2053.84 17.512C2066.7 26.728 2073.13 39.784 2073.13 56.68C2073.13 75.88 2065.07 89.992 2048.94 99.016C2072.36 107.848 2084.08 124.456 2084.08 148.84C2084.08 166.12 2077.74 179.848 2065.07 190.024C2052.4 200.008 2033.2 205 2007.47 205ZM2007.47 196.36C2016.49 196.36 2024.75 195.688 2032.24 194.344C2039.72 192.808 2046.83 190.408 2053.55 187.144C2060.46 183.688 2065.84 178.696 2069.68 172.168C2073.52 165.64 2075.44 157.864 2075.44 148.84C2075.44 128.296 2065.55 114.376 2045.77 107.08L2028.49 100.744L2044.62 91.528C2057.87 84.232 2064.49 72.616 2064.49 56.68C2064.49 26.92 2041.84 12.04 1996.52 12.04H1970.03V196.36H2007.47ZM2174.25 205H2128.17V3.39999H2163.3C2188.65 3.39999 2207.75 8.10399 2220.62 17.512C2233.48 26.728 2239.91 39.784 2239.91 56.68C2239.91 75.88 2231.85 89.992 2215.72 99.016C2239.14 107.848 2250.86 124.456 2250.86 148.84C2250.86 166.12 2244.52 179.848 2231.85 190.024C2219.18 200.008 2199.98 205 2174.25 205ZM2174.25 196.36C2183.27 196.36 2191.53 195.688 2199.02 194.344C2206.5 192.808 2213.61 190.408 2220.33 187.144C2227.24 183.688 2232.62 178.696 2236.46 172.168C2240.3 165.64 2242.22 157.864 2242.22 148.84C2242.22 128.296 2232.33 114.376 2212.55 107.08L2195.27 100.744L2211.4 91.528C2224.65 84.232 2231.27 72.616 2231.27 56.68C2231.27 26.92 2208.62 12.04 2163.3 12.04H2136.81V196.36H2174.25ZM2422.82 118.312C2422.82 155.752 2414.76 181.288 2398.63 194.92L2393.16 188.296C2407.17 176.392 2414.18 153.064 2414.18 118.312V90.088C2414.18 74.152 2412.84 60.808 2410.15 50.056C2407.46 39.112 2403.43 30.76 2398.05 25C2392.68 19.24 2386.63 15.208 2379.91 12.904C2373.19 10.408 2365.13 9.16 2355.72 9.16C2346.31 9.16 2338.25 10.408 2331.53 12.904C2324.81 15.208 2318.76 19.24 2313.38 25C2308.01 30.76 2303.97 39.112 2301.29 50.056C2298.6 60.808 2297.25 74.152 2297.25 90.088V118.312C2297.25 134.248 2298.6 147.688 2301.29 158.632C2303.97 169.384 2308.01 177.64 2313.38 183.4C2318.76 189.16 2324.81 193.288 2331.53 195.784C2338.25 198.088 2346.31 199.24 2355.72 199.24C2355.72 220.552 2359.08 234.952 2365.8 242.44C2372.71 250.12 2383.37 253.96 2397.77 253.96V262.6C2382.21 262.6 2370.21 258.76 2361.77 251.08C2353.32 243.4 2348.52 228.904 2347.37 207.592C2326.82 205.864 2311.85 197.8 2302.44 183.4C2293.22 168.808 2288.61 147.112 2288.61 118.312V90.088C2288.61 59.368 2293.89 36.808 2304.45 22.408C2315.01 7.81599 2332.1 0.519989 2355.72 0.519989C2379.33 0.519989 2396.42 7.81599 2406.98 22.408C2417.54 36.808 2422.82 59.368 2422.82 90.088V118.312Z" fill="url(#paint0_linear_88_2)"/>
<defs>
<linearGradient id="paint0_linear_88_2" x1="-28" y1="104.714" x2="2446" y2="104.714" gradientUnits="userSpaceOnUse">
<stop stop-color="#FFC517"/>
<stop offset="1" stop-color="#42B883"/>
</linearGradient>
</defs>
</svg>
